<svg xmlns="http://www.w3.org/2000/svg" version="1.1" xmlns:xlink="http://www.w3.org/1999/xlink" width="512" height="512" x="0" y="0" viewBox="0 0 64 64" style="enable-background:new 0 0 512 512" xml:space="preserve" class=""><g><path d="M31 14a9.011 9.011 0 0 0-9-9V2a1 1 0 0 0-1-1H11a1 1 0 0 0-1 1v3a9.011 9.011 0 0 0-9 9v16a1 1 0 0 0 1 1h4v1a1 1 0 0 0 1 1h18a1 1 0 0 0 1-1v-1h4a1 1 0 0 0 1-1Zm-9.13-3.553-1.317.658A1 1 0 0 0 20 12v2.532l-3.147 2.622L19.754 7h1.426Zm-10.423.658-1.317-.658L10.82 7h1.426l2.714 9.5-.115.4L12 14.532V12a1 1 0 0 0-.553-.895ZM14.326 7h3.348L16 12.86ZM12 3h8v2h-8ZM6 15v14H3V14a7.007 7.007 0 0 1 5.757-6.883L8.02 10.8a1 1 0 0 0 .533 1.1l1.447.718V15a1 1 0 0 0 .36.768l3.884 3.237-.205.72a1 1 0 0 0-.033.275H14v11H8V15Zm23 14h-3V15h-2v16h-8V20.468l5.64-4.7A1 1 0 0 0 22 15v-2.382l1.447-.723a1 1 0 0 0 .533-1.095l-.737-3.687A7.007 7.007 0 0 1 29 14ZM24 35H8a1 1 0 0 0-1 1v26a1 1 0 0 0 1 1h6a1 1 0 0 0 1-.9l1-9.547 1 9.551a1 1 0 0 0 1 .9h6a1 1 0 0 0 1-1V36a1 1 0 0 0-1-1Zm-1 26h-4.1L17 42.9a1 1 0 0 0-1.99 0L13.1 61H9V37h14Z" fill="#fe7084" opacity="1" data-original="#000000" class=""></path><path d="M18 21h2v2h-2zM18 25h2v2h-2zM55.067 29.737l2.916-15.553A1.024 1.024 0 0 0 58 14v-1.229a5.756 5.756 0 0 0-2-4.359V2a1 1 0 0 0-1-1h-4a1 1 0 0 0-1 1v5.454a5.729 5.729 0 0 0-3 2.877 5.729 5.729 0 0 0-3-2.877V2a1 1 0 0 0-1-1h-4a1 1 0 0 0-1 1v6.412a5.756 5.756 0 0 0-2 4.359V14a1.024 1.024 0 0 0 .017.184l2.916 15.553A37.648 37.648 0 0 0 31 52.806V62a1 1 0 0 0 1 1h30a1 1 0 0 0 1-1v-9.194a37.648 37.648 0 0 0-7.933-23.069ZM52 3h2v4.281A5.73 5.73 0 0 0 52.229 7c-.077 0-.152.013-.229.016ZM40 3h2v4.016c-.077 0-.152-.016-.229-.016A5.73 5.73 0 0 0 40 7.281Zm-2 10.907v-1.136a3.77 3.77 0 0 1 7.271-1.4l.8 2a1 1 0 0 0 1.858 0l.8-2a3.77 3.77 0 0 1 7.271 1.4v1.136L53.92 25H40.08ZM53.17 29H40.83l-.375-2h13.09ZM61 61H33v-8.194A35.635 35.635 0 0 1 40.493 31h13.014A35.635 35.635 0 0 1 61 52.806Z" fill="#fe7084" opacity="1" data-original="#000000" class=""></path></g></svg>