<svg xmlns="http://www.w3.org/2000/svg" version="1.1" xmlns:xlink="http://www.w3.org/1999/xlink" width="512" height="512" x="0" y="0" viewBox="0 0 128 128" style="enable-background:new 0 0 512 512" xml:space="preserve" class=""><g><path d="M67.242 66.273c1.105 0 2.012.908 2.012 2.014s-.906 2.012-2.012 2.012H8.139a6.833 6.833 0 0 1-5.045-2.182C1.847 66.783 1.11 64.914 1.11 62.9V7.398c0-2.012.822-3.883 2.183-5.215C4.653.822 6.495 0 8.508 0h94.365c2.041 0 3.884.822 5.244 2.183.028.028.057.085.113.113a7.375 7.375 0 0 1 2.041 5.102V62.9c0 2.041-.936 3.883-2.353 5.217-1.445 1.332-3.401 2.182-5.414 2.182h-1.645c-1.105 0-2.013-.906-2.013-2.012s.907-2.014 2.013-2.014h1.645a3.94 3.94 0 0 0 2.692-1.076c.652-.625 1.077-1.418 1.077-2.297V7.398c0-.907-.34-1.701-.906-2.324l-.086-.085c-.623-.595-1.474-.992-2.409-.992H8.508c-.936 0-1.786.397-2.409.992-.596.623-.993 1.474-.993 2.409V62.9c0 .992.34 1.871.907 2.494.51.539 1.248.879 2.126.879z" fill="#fe7084" opacity="1" data-original="#000000" class=""></path><path d="M106.615 35.234c-.624-.936-.369-2.154.566-2.778a2 2 0 0 1 2.75.567l12.671 18.992a15.255 15.255 0 0 1 1.7 3.401c.397 1.162.652 2.41.766 3.713l1.814 20.637c.028.283-.028.537-.085.764l-7.002 31.098c-.227.906-1.049 1.559-1.956 1.559H80.706c-.51 0-.992-.199-1.36-.539-5.074-4.223-7.994-9.326-8.844-15.619-.822-6.037.312-13.123 3.288-21.6l.793-22.28c.171-5.301 2.92-8.674 6.407-10.148a10.375 10.375 0 0 1 4.365-.766c1.502.057 2.976.425 4.337 1.105 3.458 1.758 6.065 5.5 5.867 11.226l-.396 25.568c0 1.105-.907 1.984-2.013 1.984-1.105-.027-1.984-.936-1.956-2.012l.368-25.569c-.085-3.118-.623-6.066-3.685-7.625a6.9 6.9 0 0 0-2.665-.708 6.77 6.77 0 0 0-2.692.482c-2.154.907-3.855 3.09-3.94 6.604l-.794 22.48c0 .227-.028.482-.113.709-2.834 7.994-3.939 14.57-3.203 20.041.681 5.018 2.977 9.156 6.974 12.67h34.81l6.604-29.365-1.758-20.354a11.251 11.251 0 0 0-.566-2.75c-.283-.851-.709-1.673-1.247-2.495zM108.287 23.556c1.105 0 1.984.879 1.984 1.984s-.879 2.013-1.984 2.013H48.533c-1.105 0-1.984-.907-1.984-2.013s.879-1.984 1.984-1.984zm-97.058-.085c1.105 0 2.013.907 2.013 2.013s-.907 1.984-2.013 1.984H3.122c-1.105 0-2.013-.878-2.013-1.984s.907-2.013 2.013-2.013zM31.894 68.287a2.02 2.02 0 0 1-2.013 2.012c-1.105 0-1.984-.906-1.984-2.012V36.68c0-1.105.878-2.013 1.984-2.013s2.013.907 2.013 2.013zm0-59.613a2.021 2.021 0 0 1-2.013 2.013c-1.105 0-1.984-.907-1.984-2.013V2.012C27.897.907 28.775 0 29.881 0s2.013.907 2.013 2.012z" fill="#fe7084" opacity="1" data-original="#000000" class=""></path><path d="M41.645 36.652a1.991 1.991 0 0 1-1.417 2.438c-1.049.284-2.154-.34-2.438-1.389-.624-2.268-1.332-4.394-2.579-6.151-1.134-1.559-2.778-2.919-5.33-3.968-2.551 1.049-4.167 2.409-5.301 3.968-1.275 1.757-1.984 3.883-2.579 6.151a2.026 2.026 0 0 1-2.466 1.389c-1.049-.283-1.672-1.389-1.389-2.438.709-2.636 1.559-5.159 3.203-7.427a13.85 13.85 0 0 1 1.928-2.183c-4.564-1.843-7.285-4.819-8.447-7.597a8.638 8.638 0 0 1-.68-3.543c.057-1.248.425-2.353 1.077-3.26 1.162-1.644 3.175-2.522 5.811-2.069 2.324.397 4.875 1.786 7.001 4.791.652.907 1.275 2.012 1.842 3.288.567-1.276 1.191-2.381 1.871-3.288 2.126-3.005 4.649-4.394 6.973-4.791 2.665-.453 4.649.425 5.839 2.069.652.907 1.021 2.013 1.077 3.26.028 1.105-.198 2.324-.68 3.543-1.162 2.778-3.883 5.754-8.447 7.597a15.37 15.37 0 0 1 1.928 2.183c1.616 2.268 2.466 4.791 3.203 7.427zm-14.06-12.416c-.737-2.891-1.701-5.045-2.806-6.576-1.417-2.013-3.005-2.92-4.394-3.146-.964-.17-1.616.028-1.928.454-.198.283-.312.652-.312 1.077-.028.567.085 1.19.369 1.871 1.021 2.437 3.883 5.101 9.071 6.32zm7.398-6.576c-1.077 1.531-2.069 3.685-2.778 6.576 5.188-1.219 8.05-3.883 9.042-6.321.283-.68.425-1.304.397-1.871-.028-.425-.114-.794-.312-1.077-.312-.425-.964-.624-1.956-.454-1.388.227-2.947 1.134-4.393 3.147zM8.253 87.816h8.815c-1.077-1.162-1.814-2.408-2.239-3.656-.737-2.182-.567-4.648.936-6.463 1.304-1.559 3.345-2.381 5.953-1.928 2.183.369 4.592 1.672 6.576 4.508a18.587 18.587 0 0 1 1.587 2.807c.51-1.049 1.021-1.984 1.587-2.807 2.013-2.836 4.394-4.139 6.577-4.508 2.636-.453 4.677.369 5.953 1.928 1.531 1.814 1.672 4.281.964 6.463-.425 1.248-1.162 2.494-2.268 3.656h8.815c2.353 0 4.309 1.928 4.309 4.281v7.229a4.301 4.301 0 0 1-2.665 3.969v20.834c0 2.127-1.757 3.883-3.855 3.883H10.492c-2.126 0-3.855-1.756-3.855-3.883v-20.834a4.332 4.332 0 0 1-2.665-3.969v-7.229a4.296 4.296 0 0 1 4.281-4.281zm24.151 0h2.721c3.515-1.105 5.415-3.09 6.038-4.902.283-.852.368-1.957-.227-2.693-.396-.453-1.134-.709-2.211-.539-1.247.227-2.693 1.049-3.968 2.891-.907 1.275-1.701 2.976-2.353 5.243zm-7.738 0h2.693c-.624-2.268-1.446-3.969-2.325-5.244-1.304-1.842-2.721-2.664-3.997-2.891-1.049-.17-1.786.086-2.211.539-.596.736-.482 1.842-.227 2.693.624 1.814 2.523 3.798 6.067 4.903zm13.662 3.998v7.795H51.509c.17 0 .284-.113.284-.283v-7.229a.283.283 0 0 0-.284-.283zm-16.894 7.795v-7.795H8.253a.284.284 0 0 0-.284.283v7.229c0 .17.142.283.284.283h.368zm3.997-7.795v7.795h8.901v-7.795zm7.313 32.202v-20.381h-5.726v20.381zm-9.723 0v-20.381H10.634v20.381zm13.72-20.381v20.381h12.416v-20.381zM77.872 109.189h41.952c2.183 0 3.997 1.787 3.997 3.998v10.828a3.924 3.924 0 0 1-1.19 2.807 3.924 3.924 0 0 1-2.807 1.189H77.872c-2.183 0-3.997-1.814-3.997-3.996v-10.828c0-2.21 1.814-3.998 3.997-3.998zm41.952 3.999H77.872v10.828h41.952z" fill="#fe7084" opacity="1" data-original="#000000" class=""></path></g></svg>