<svg xmlns="http://www.w3.org/2000/svg" version="1.1" xmlns:xlink="http://www.w3.org/1999/xlink" width="512" height="512" x="0" y="0" viewBox="0 0 64 64" style="enable-background:new 0 0 512 512" xml:space="preserve" class=""><g><path d="M24 25v-2a5 5 0 0 0-10 0v2a5 5 0 0 0 10 0Zm-8 0v-2a3 3 0 0 1 6 0v2a3 3 0 0 1-6 0Z" fill="#fe7084" opacity="1" data-original="#000000" class=""></path><path d="M55 64a1 1 0 0 0 1-1V43a1 1 0 0 0-1-1H40v-4h7a1 1 0 0 0 .986-.835l2-12A1 1 0 0 0 49 24H31a1 1 0 0 0-.986.835l-2 12A1 1 0 0 0 29 38h9v4h-4.556A3.959 3.959 0 0 0 34 40a1 1 0 0 0-.89-.994l-8.6-.955-4.742-5.691A1 1 0 0 0 19 32h-2a5.006 5.006 0 0 0-5 5v12a4.948 4.948 0 0 0 1.026 3H10V35a1 1 0 0 0-2 0v18a1 1 0 0 0 1 1h5v8h-3a1 1 0 0 0 0 2h8a1 1 0 0 0 0-2h-3v-8h7.419l4.513 7.9A.884.884 0 0 0 28 62a5.025 5.025 0 0 0 4 2h3a1 1 0 0 0 .883-1.469l-7.81-14.691a1 1 0 0 0-.143-.2 5.011 5.011 0 0 0-3.7-1.64H21v-2h33v19a1 1 0 0 0 1 1ZM31.847 26h15.972l-1.666 10H30.181ZM17.781 37.375a1 1 0 1 0-1.562 1.25L19 42.1V47a1 1 0 0 0 1 1h4.23a3.013 3.013 0 0 1 2.141.9L33.336 62H32a3.017 3.017 0 0 1-2.365-1.154L24.868 52.5A1 1 0 0 0 24 52h-7a3 3 0 0 1-3-3V37a3 3 0 0 1 3-3h1.532l4.7 5.64a1 1 0 0 0 .658.354l7.909.879A2 2 0 0 1 30 42h-8.52Z" fill="#fe7084" opacity="1" data-original="#000000" class=""></path><path d="M1.612 25.791 32 2.265 46.388 13.4A1 1 0 0 0 48 12.61V8h6v10.81a1 1 0 0 0 .388.791l8 6.19a1 1 0 0 0 1.224-1.582L56 18.319V7a1 1 0 0 0-1-1h-8a1 1 0 0 0-1 1v3.571L32.612.209a1 1 0 0 0-1.224 0l-31 24a1 1 0 0 0 1.224 1.582ZM40 56a1 1 0 0 0-.986 1.165l1 6A1 1 0 0 0 41 64h6a1 1 0 0 0 .986-.835l1-6A1 1 0 0 0 48 56h-3v-1.465l2.555-1.7a1 1 0 1 0-1.11-1.663l-1.445.96V50a1 1 0 0 0-2 0v2.132l-1.445-.963a1 1 0 1 0-1.11 1.663L43 54.535V56Zm6.153 6h-4.306l-.666-4h5.638Z" fill="#fe7084" opacity="1" data-original="#000000" class=""></path></g></svg>