<svg xmlns="http://www.w3.org/2000/svg" version="1.1" xmlns:xlink="http://www.w3.org/1999/xlink" width="512" height="512" x="0" y="0" viewBox="0 0 64 64" style="enable-background:new 0 0 512 512" xml:space="preserve" class=""><g><g data-name="17 Jewelry"><path d="M15 56H1a1 1 0 0 0-1 1v4a3 3 0 0 0 3 3h10a3 3 0 0 0 3-3v-4a1 1 0 0 0-1-1Zm-1 5a1 1 0 0 1-1 1H3a1 1 0 0 1-1-1v-3h12ZM13 40H3a3 3 0 0 0-3 3v10a1 1 0 0 0 2 0V43a1 1 0 0 1 1-1h10a1 1 0 0 1 1 1v10a1 1 0 0 0 2 0V43a3 3 0 0 0-3-3Z" fill="#fe7084" opacity="1" data-original="#000000" class=""></path><path d="M4 53a1 1 0 0 0 2 0 2 2 0 0 1 4 0 1 1 0 0 0 2 0 3.982 3.982 0 0 0-1.619-3.195A2.972 2.972 0 0 0 11 48a3 3 0 0 0-6 0 2.972 2.972 0 0 0 .619 1.8A3.982 3.982 0 0 0 4 53Zm3-5a1 1 0 1 1 1 1 1 1 0 0 1-1-1ZM22.8 48.923a19.184 19.184 0 0 1-4.55 9.868 1 1 0 0 0 1.504 1.309 21.173 21.173 0 0 0 5.021-10.9 1 1 0 1 0-1.979-.285ZM50 50.58a2.916 2.916 0 0 0-1.764-2.73 2 2 0 0 1 .393-3.817A2 2 0 0 1 51 46a1 1 0 0 0 2 0 4 4 0 1 0-5.528 3.7.94.94 0 0 1 .528.88v.111c-.972 1.431-4 6.07-4 8.309a5 5 0 0 0 10 0c0-2.239-3.028-6.878-4-8.309ZM49 62a3 3 0 0 1-3-3c0-1.092 1.561-3.942 3-6.191 1.439 2.249 3 5.1 3 6.191a3 3 0 0 1-3 3ZM42.083 62H18.65a1 1 0 0 0 0 2h23.433a1 1 0 0 0 0-2ZM40.054 47.906a1 1 0 0 0-.857 1.126 21.191 21.191 0 0 0 1.951 6.441 1 1 0 1 0 1.8-.875 19.212 19.212 0 0 1-1.767-5.835 1 1 0 0 0-1.127-.857ZM60 50.691v-.111a2.916 2.916 0 0 0-1.764-2.73 2 2 0 0 1 .393-3.817A2 2 0 0 1 61 46a1 1 0 0 0 2 0 4 4 0 1 0-5.528 3.7.94.94 0 0 1 .528.88v.113a49.353 49.353 0 0 0-2.688 4.473 1 1 0 0 0 1.777.92c.613-1.185 1.357-2.4 1.914-3.274 1.438 2.25 3 5.1 3 6.188a3 3 0 0 1-3 3 2.955 2.955 0 0 1-1.943-.738 1 1 0 1 0-1.306 1.515A4.98 4.98 0 0 0 64 59c0-2.239-3.028-6.878-4-8.309ZM32 48c15.1 0 23.242-24.89 24.719-29.879A6.8 6.8 0 0 0 57 16.179a6.879 6.879 0 0 0-6.015-6.814l-3-.373-3.723-.464a2.273 2.273 0 0 0-.119-.022.982.982 0 0 0-1.109.807 1.018 1.018 0 0 0 .774 1.164c.034.007.112.022.147.026l2.747.343a14.97 14.97 0 0 1-29.406 0l2.747-.343a7.045 7.045 0 0 0 5.923-5.248L26.781 2h10.438l.814 3.254a6.937 6.937 0 0 0 1.161 2.435 1 1 0 0 0 1.612-1.183 4.988 4.988 0 0 1-.833-1.736l-1-4.012A1 1 0 0 0 38 0H26a1 1 0 0 0-.97.758l-1 4.012a5.033 5.033 0 0 1-4.23 3.748l-6.781.847a6.96 6.96 0 0 0-5.793 8.655C8.543 23.025 15.928 48 32 48Zm10-25.525c.983 1.144 2 2.652 2 3.525a2 2 0 0 1-4 0c0-.873 1.017-2.381 2-3.525ZM35 31a3 3 0 0 1-6 0c0-1.727 1.784-4.14 3-5.53 1.216 1.39 3 3.803 3 5.53Zm-11-5a2 2 0 0 1-4 0c0-.873 1.017-2.381 2-3.525.983 1.144 2 2.652 2 3.525ZM13.263 11.35l2.05-.257a16.943 16.943 0 0 0 5.509 9.7C19.894 21.809 18 24.12 18 26a4 4 0 0 0 8 0 5.258 5.258 0 0 0-.772-2.429 16.86 16.86 0 0 0 4.672 1.283C28.638 26.406 27 28.834 27 31a5 5 0 0 0 10 0c0-2.166-1.638-4.594-2.9-6.146a16.86 16.86 0 0 0 4.673-1.283A5.258 5.258 0 0 0 38 26a4 4 0 0 0 8 0c0-1.88-1.894-4.191-2.822-5.21a16.943 16.943 0 0 0 5.509-9.7l2.05.257A4.873 4.873 0 0 1 55 16.179a4.816 4.816 0 0 1-.2 1.374C53.4 22.3 45.682 46 32 46 17.4 46 10.412 22.268 9.16 17.51A5.09 5.09 0 0 1 9 16.179a4.873 4.873 0 0 1 4.263-4.829Z" fill="#fe7084" opacity="1" data-original="#000000" class=""></path></g></g></svg>